c:\users\suhlr\documents\myrepositories\opencap-processing-grf\examples\GRF_tracking_data\OC_val\OpenSimData\Dynamics\walking1\GRF_walking1_no_grf_tracking.mot
version=1
nRows=4
nColumns=109
inDegrees=yes
endheader 
time	ground_force_SmoothSphereHalfSpaceForce_s1_r_vx	ground_force_SmoothSphereHalfSpaceForce_s1_r_vy	ground_force_SmoothSphereHalfSpaceForce_s1_r_vz	ground_force_SmoothSphereHalfSpaceForce_s1_r_px	ground_force_SmoothSphereHalfSpaceForce_s1_r_py	ground_force_SmoothSphereHalfSpaceForce_s1_r_pz	ground_torque_SmoothSphereHalfSpaceForce_s1_r_x	ground_torque_SmoothSphereHalfSpaceForce_s1_r_y	ground_torque_SmoothSphereHalfSpaceForce_s1_r_z	ground_force_SmoothSphereHalfSpaceForce_s2_r_vx	ground_force_SmoothSphereHalfSpaceForce_s2_r_vy	ground_force_SmoothSphereHalfSpaceForce_s2_r_vz	ground_force_SmoothSphereHalfSpaceForce_s2_r_px	ground_force_SmoothSphereHalfSpaceForce_s2_r_py	ground_force_SmoothSphereHalfSpaceForce_s2_r_pz	ground_torque_SmoothSphereHalfSpaceForce_s2_r_x	ground_torque_SmoothSphereHalfSpaceForce_s2_r_y	ground_torque_SmoothSphereHalfSpaceForce_s2_r_z	ground_force_SmoothSphereHalfSpaceForce_s3_r_vx	ground_force_SmoothSphereHalfSpaceForce_s3_r_vy	ground_force_SmoothSphereHalfSpaceForce_s3_r_vz	ground_force_SmoothSphereHalfSpaceForce_s3_r_px	ground_force_SmoothSphereHalfSpaceForce_s3_r_py	ground_force_SmoothSphereHalfSpaceForce_s3_r_pz	ground_torque_SmoothSphereHalfSpaceForce_s3_r_x	ground_torque_SmoothSphereHalfSpaceForce_s3_r_y	ground_torque_SmoothSphereHalfSpaceForce_s3_r_z	ground_force_SmoothSphereHalfSpaceForce_s4_r_vx	ground_force_SmoothSphereHalfSpaceForce_s4_r_vy	ground_force_SmoothSphereHalfSpaceForce_s4_r_vz	ground_force_SmoothSphereHalfSpaceForce_s4_r_px	ground_force_SmoothSphereHalfSpaceForce_s4_r_py	ground_force_SmoothSphereHalfSpaceForce_s4_r_pz	ground_torque_SmoothSphereHalfSpaceForce_s4_r_x	ground_torque_SmoothSphereHalfSpaceForce_s4_r_y	ground_torque_SmoothSphereHalfSpaceForce_s4_r_z	ground_force_SmoothSphereHalfSpaceForce_s5_r_vx	ground_force_SmoothSphereHalfSpaceForce_s5_r_vy	ground_force_SmoothSphereHalfSpaceForce_s5_r_vz	ground_force_SmoothSphereHalfSpaceForce_s5_r_px	ground_force_SmoothSphereHalfSpaceForce_s5_r_py	ground_force_SmoothSphereHalfSpaceForce_s5_r_pz	ground_torque_SmoothSphereHalfSpaceForce_s5_r_x	ground_torque_SmoothSphereHalfSpaceForce_s5_r_y	ground_torque_SmoothSphereHalfSpaceForce_s5_r_z	ground_force_SmoothSphereHalfSpaceForce_s6_r_vx	ground_force_SmoothSphereHalfSpaceForce_s6_r_vy	ground_force_SmoothSphereHalfSpaceForce_s6_r_vz	ground_force_SmoothSphereHalfSpaceForce_s6_r_px	ground_force_SmoothSphereHalfSpaceForce_s6_r_py	ground_force_SmoothSphereHalfSpaceForce_s6_r_pz	ground_torque_SmoothSphereHalfSpaceForce_s6_r_x	ground_torque_SmoothSphereHalfSpaceForce_s6_r_y	ground_torque_SmoothSphereHalfSpaceForce_s6_r_z	ground_force_SmoothSphereHalfSpaceForce_s1_l_vx	ground_force_SmoothSphereHalfSpaceForce_s1_l_vy	ground_force_SmoothSphereHalfSpaceForce_s1_l_vz	ground_force_SmoothSphereHalfSpaceForce_s1_l_px	ground_force_SmoothSphereHalfSpaceForce_s1_l_py	ground_force_SmoothSphereHalfSpaceForce_s1_l_pz	ground_torque_SmoothSphereHalfSpaceForce_s1_l_x	ground_torque_SmoothSphereHalfSpaceForce_s1_l_y	ground_torque_SmoothSphereHalfSpaceForce_s1_l_z	ground_force_SmoothSphereHalfSpaceForce_s2_l_vx	ground_force_SmoothSphereHalfSpaceForce_s2_l_vy	ground_force_SmoothSphereHalfSpaceForce_s2_l_vz	ground_force_SmoothSphereHalfSpaceForce_s2_l_px	ground_force_SmoothSphereHalfSpaceForce_s2_l_py	ground_force_SmoothSphereHalfSpaceForce_s2_l_pz	ground_torque_SmoothSphereHalfSpaceForce_s2_l_x	ground_torque_SmoothSphereHalfSpaceForce_s2_l_y	ground_torque_SmoothSphereHalfSpaceForce_s2_l_z	ground_force_SmoothSphereHalfSpaceForce_s3_l_vx	ground_force_SmoothSphereHalfSpaceForce_s3_l_vy	ground_force_SmoothSphereHalfSpaceForce_s3_l_vz	ground_force_SmoothSphereHalfSpaceForce_s3_l_px	ground_force_SmoothSphereHalfSpaceForce_s3_l_py	ground_force_SmoothSphereHalfSpaceForce_s3_l_pz	ground_torque_SmoothSphereHalfSpaceForce_s3_l_x	ground_torque_SmoothSphereHalfSpaceForce_s3_l_y	ground_torque_SmoothSphereHalfSpaceForce_s3_l_z	ground_force_SmoothSphereHalfSpaceForce_s4_l_vx	ground_force_SmoothSphereHalfSpaceForce_s4_l_vy	ground_force_SmoothSphereHalfSpaceForce_s4_l_vz	ground_force_SmoothSphereHalfSpaceForce_s4_l_px	ground_force_SmoothSphereHalfSpaceForce_s4_l_py	ground_force_SmoothSphereHalfSpaceForce_s4_l_pz	ground_torque_SmoothSphereHalfSpaceForce_s4_l_x	ground_torque_SmoothSphereHalfSpaceForce_s4_l_y	ground_torque_SmoothSphereHalfSpaceForce_s4_l_z	ground_force_SmoothSphereHalfSpaceForce_s5_l_vx	ground_force_SmoothSphereHalfSpaceForce_s5_l_vy	ground_force_SmoothSphereHalfSpaceForce_s5_l_vz	ground_force_SmoothSphereHalfSpaceForce_s5_l_px	ground_force_SmoothSphereHalfSpaceForce_s5_l_py	ground_force_SmoothSphereHalfSpaceForce_s5_l_pz	ground_torque_SmoothSphereHalfSpaceForce_s5_l_x	ground_torque_SmoothSphereHalfSpaceForce_s5_l_y	ground_torque_SmoothSphereHalfSpaceForce_s5_l_z	ground_force_SmoothSphereHalfSpaceForce_s6_l_vx	ground_force_SmoothSphereHalfSpaceForce_s6_l_vy	ground_force_SmoothSphereHalfSpaceForce_s6_l_vz	ground_force_SmoothSphereHalfSpaceForce_s6_l_px	ground_force_SmoothSphereHalfSpaceForce_s6_l_py	ground_force_SmoothSphereHalfSpaceForce_s6_l_pz	ground_torque_SmoothSphereHalfSpaceForce_s6_l_x	ground_torque_SmoothSphereHalfSpaceForce_s6_l_y	ground_torque_SmoothSphereHalfSpaceForce_s6_l_z	
          0.30096226	         -1.87541589	        134.09649436	         -3.11631399	          0.18115210	         -0.00804582	         -0.23362712	          0.00000000	          0.00000000	          0.00000000	         -0.69738168	         56.76680544	          1.75448440	          0.31977965	         -0.00392394	         -0.25117040	          0.00000000	          0.00000000	          0.00000000	         -3.85051494	         76.15859362	          1.75026560	          0.30207616	         -0.00421302	         -0.17616370	          0.00000000	          0.00000000	          0.00000000	         -3.69643854	        110.70374593	         -0.07121092	          0.24037180	         -0.00615948	         -0.20262968	          0.00000000	          0.00000000	          0.00000000	         -0.35585364	         19.44870613	          1.19078032	          0.39024537	         -0.00139441	         -0.23750082	          0.00000000	          0.00000000	          0.00000000	         -0.77635993	         13.09736875	          0.63442752	          0.37270123	         -0.00057204	         -0.16228718	          0.00000000	          0.00000000	          0.00000000	         -0.00000000	         -0.00000000	         -0.00000000	          0.05596520	          0.07394245	         -0.35807649	          0.00000000	          0.00000000	          0.00000000	         -0.00000000	          0.00000000	          0.00000000	          0.15372469	          0.02608058	         -0.32852369	          0.00000000	          0.00000000	          0.00000000	         -0.00000000	         -0.00000000	          0.00000000	          0.15202304	          0.03324226	         -0.40423168	          0.00000000	          0.00000000	          0.00000000	         -0.00000000	         -0.00000000	         -0.00000000	          0.10343048	          0.05405169	         -0.38350333	          0.00000000	          0.00000000	          0.00000000	        -10.37439768	          3.30260922	          0.13941328	          0.20697102	          0.00220741	         -0.33574582	          0.00000000	          0.00000000	          0.00000000	         -0.00628324	          0.00203302	          0.00007679	          0.20678790	          0.00994502	         -0.41142988	          0.00000000	          0.00000000	          0.00000000	
          0.32111321	         -0.31762606	        125.20551950	         -5.29163576	          0.18134615	         -0.00731675	         -0.23302695	          0.00000000	          0.00000000	          0.00000000	          0.04603247	         50.61923563	          0.59016055	          0.31999004	         -0.00353079	         -0.25074303	          0.00000000	          0.00000000	          0.00000000	         -2.92500596	         83.13753103	          0.54941114	          0.30245059	         -0.00445108	         -0.17571814	          0.00000000	          0.00000000	          0.00000000	         -2.16816010	        108.82293193	         -1.98684629	          0.24066070	         -0.00593050	         -0.20210538	          0.00000000	          0.00000000	          0.00000000	         -0.45565546	         18.80409728	          0.47411792	          0.39052393	         -0.00136735	         -0.23714525	          0.00000000	          0.00000000	          0.00000000	         -1.16235773	         19.29613631	          0.31285046	          0.37315768	         -0.00116648	         -0.16187344	          0.00000000	          0.00000000	          0.00000000	         -0.00000000	         -0.00000000	         -0.00000000	          0.12754299	          0.06150724	         -0.35355316	          0.00000000	          0.00000000	          0.00000000	         -0.00000006	          0.00000002	         -0.00000000	          0.23855627	          0.02106180	         -0.32660801	          0.00000000	          0.00000000	          0.00000000	         -0.00000000	          0.00000000	         -0.00000000	          0.23401699	          0.02872258	         -0.40200296	          0.00000000	          0.00000000	          0.00000000	         -0.00000000	         -0.00000000	         -0.00000000	          0.18006439	          0.04554968	         -0.38010451	          0.00000000	          0.00000000	          0.00000000	        -14.27094276	          4.48609145	         -0.22141587	          0.29767787	          0.00118870	         -0.33516175	          0.00000000	          0.00000000	          0.00000000	         -0.01066676	          0.00341920	         -0.00018446	          0.29416759	          0.00928877	         -0.41061258	          0.00000000	          0.00000000	          0.00000000	
          0.34126415	         -0.86831187	        122.88598215	         -6.83127132	          0.18147738	         -0.00680042	         -0.23238752	          0.00000000	          0.00000000	          0.00000000	         -0.21181697	         46.53373948	         -1.09843921	          0.32012655	         -0.00322602	         -0.25023763	          0.00000000	          0.00000000	          0.00000000	         -2.48768695	         91.23871305	         -2.18311370	          0.30271396	         -0.00473168	         -0.17522105	          0.00000000	          0.00000000	          0.00000000	         -1.97667016	        110.81704540	         -4.42564781	          0.24086165	         -0.00582848	         -0.20153665	          0.00000000	          0.00000000	          0.00000000	         -0.69393940	         17.75378797	         -0.57091023	          0.39072105	         -0.00129735	         -0.23668379	          0.00000000	          0.00000000	          0.00000000	         -1.49665035	         25.25289527	         -0.90483130	          0.37348219	         -0.00162840	         -0.16138455	          0.00000000	          0.00000000	          0.00000000	         -0.00000000	         -0.00000000	         -0.00000000	          0.20247935	          0.04902590	         -0.34743746	          0.00000000	          0.00000000	          0.00000000	         -0.00000392	          0.00000126	         -0.00000019	          0.32459394	          0.01712374	         -0.32273197	          0.00000000	          0.00000000	          0.00000000	         -0.00000000	          0.00000000	         -0.00000000	          0.31675311	          0.02464681	         -0.39791102	          0.00000000	          0.00000000	          0.00000000	         -0.00000000	         -0.00000000	         -0.00000000	          0.25874656	          0.03722219	         -0.37498264	          0.00000000	          0.00000000	          0.00000000	         -5.85423896	          1.85575150	         -0.22259240	          0.38852191	          0.00168322	         -0.33244087	          0.00000000	          0.00000000	          0.00000000	         -0.00574335	          0.00185721	         -0.00023189	          0.38139987	          0.00953339	         -0.40774272	          0.00000000	          0.00000000	          0.00000000	
          0.36141509	         -0.05382130	        126.56737455	         -6.70088952	          0.18155413	         -0.00653956	         -0.23178824	          0.00000000	          0.00000000	          0.00000000	         -0.05374309	         45.57057280	         -2.54249955	          0.32020985	         -0.00305258	         -0.24965663	          0.00000000	          0.00000000	          0.00000000	         -0.40188730	        101.59410220	         -5.18680494	          0.30285012	         -0.00505945	         -0.17467474	          0.00000000	          0.00000000	          0.00000000	         -0.26616330	        117.40715245	         -6.08714225	          0.24096960	         -0.00587600	         -0.20096477	          0.00000000	          0.00000000	          0.00000000	         -0.69392222	         17.22336408	         -1.55377942	          0.39084874	         -0.00123298	         -0.23607976	          0.00000000	          0.00000000	          0.00000000	         -1.16866453	         30.48951323	         -2.68862181	          0.37365262	         -0.00198304	         -0.16078277	          0.00000000	          0.00000000	          0.00000000	         -0.00000000	         -0.00000000	         -0.00000000	          0.27944487	          0.03747130	         -0.34046290	          0.00000000	          0.00000000	          0.00000000	         -0.00003988	          0.00001304	         -0.00000258	          0.40984670	          0.01474152	         -0.31761308	          0.00000000	          0.00000000	          0.00000000	         -0.00000003	          0.00000001	         -0.00000000	          0.39874161	          0.02146565	         -0.39268355	          0.00000000	          0.00000000	          0.00000000	         -0.00000000	          0.00000000	         -0.00000000	          0.33808539	          0.02978290	         -0.36886872	          0.00000000	          0.00000000	          0.00000000	         -0.11701269	          0.03790844	         -0.00636353	          0.47726801	          0.00393122	         -0.32828921	          0.00000000	          0.00000000	          0.00000000	         -0.00070216	          0.00023168	         -0.00003994	          0.46671302	          0.01092379	         -0.40352618	          0.00000000	          0.00000000	          0.00000000	
